<svg width="30" height="30" xmlns="http://www.w3.org/2000/svg">
 <title/>
 <desc/>

 <g>
  <title>background</title>
  <rect fill="none" id="canvas_background" height="22" width="22" y="-1" x="-1"/>
 </g>
 <g>
  <title>Layer 1</title>
  <path fill="#ffffff" id="Shape" d="m20,7.744l-7.191,-0.617l-2.809,-6.627l-2.809,6.627l-7.191,0.617l5.455,4.727l-1.635,7.029l6.18,-3.728l6.18,3.728l-1.635,-7.029l5.455,-4.727l0,0zm-10,6.152l-3.763,2.27l0.996,-4.281l-3.323,-2.878l4.38,-0.376l1.71,-4.036l1.71,4.036l4.38,0.376l-3.322,2.878l0.996,4.281l-3.764,-2.27l0,0z"/>
  <path d="m9.975963,3.626828c0,0.096153 0,0.336537 0,0.480768c0,0.192307 -0.096154,0.432691 -0.096154,0.576921c0,0.096153 0.036797,0.199626 0,0.288461c-0.052038,0.12563 -0.192307,0.240384 -0.192307,0.28846c0,0.048077 -0.099813,0.125832 -0.14423,0.14423c-0.062815,0.026019 -0.106862,0.13096 -0.288461,0.28846c-0.102728,0.089095 -0.13715,0.152552 -0.192307,0.192307c-0.087212,0.062858 -0.167608,0.135756 -0.192307,0.240384c-0.022092,0.093581 -0.048077,0.192307 -0.048077,0.240384c0,0.096153 -0.005391,0.236456 -0.14423,0.432691c-0.100119,0.141507 -0.188346,0.210907 -0.240384,0.336537c-0.018398,0.044417 -0.048077,0.14423 -0.14423,0.192307c-0.096153,0.048077 -0.237218,0.103091 -0.336537,0.14423c-0.14046,0.05818 -0.247564,0.070879 -0.28846,0.096154c-0.091447,0.056518 -0.110235,0.110235 -0.14423,0.14423c-0.033995,0.033995 -0.048077,0.048077 -0.048077,0.096154c0,0.048077 -0.033296,0.153173 -0.096154,0.240384c-0.039755,0.055157 -0.096153,0.096153 -0.14423,0.096153c-0.048077,0 -0.096154,0 -0.14423,0c-0.048077,0 -0.048077,0.048077 -0.14423,0.048077c-0.048077,0 -0.096154,0 -0.14423,0c-0.096154,0 -0.129492,0.022058 -0.192307,0.048077c-0.044417,0.018398 -0.177568,0.022058 -0.240384,0.048078c-0.044417,0.018398 -0.096154,0 -0.192307,0c-0.14423,0 -0.186469,0.023724 -0.336537,0.048077c-0.047456,0.007701 -0.330698,0.119877 -0.480767,0.14423c-0.094912,0.015402 -0.23191,0.023377 -0.336537,0.048077c-0.187162,0.044183 -0.28846,0.048077 -0.384614,0.048077c-0.048077,0 -0.096154,0 -0.14423,0c-0.048077,0 -0.096153,0.048077 -0.192307,0.048077c-0.096153,0 -0.148936,0.039636 -0.240384,0.096153c-0.040896,0.025275 -0.096153,0 -0.192307,0c-0.048077,0 -0.116291,0.020138 -0.192307,0.096154c-0.076015,0.076016 -0.110235,0.062158 -0.14423,0.096153c-0.033995,0.033996 -0.070134,0.033338 -0.096153,0.096153c-0.036796,0.088834 0.051736,0.077755 0.096153,0.096153c0.062815,0.026019 0.062158,0.062159 0.096153,0.096154c0.067991,0.06799 0.15141,0.022801 0.192307,0.048077c0.091447,0.056518 0.077755,0.099813 0.096153,0.14423c0.026019,0.062816 0.070135,0.081414 0.096154,0.14423c0.018398,0.044417 -0.018398,0.099813 0,0.144231c0.026019,0.062815 0.004706,0.135789 0.096153,0.192307c0.040896,0.025275 0.099813,-0.018398 0.14423,0c0.062815,0.026019 0.096153,0.14423 0.14423,0.14423c0.14423,0 0.195966,0.029679 0.240384,0.048078c0.062815,0.026019 0.022801,0.103333 0.048077,0.14423c0.056518,0.091447 0.166288,0.033339 0.192307,0.096153c0.036796,0.088834 0.048077,0.192307 0.048077,0.288461c0,0.096153 -0.014739,0.166287 0.048077,0.192307c0.044417,0.018398 0.096154,0 0.14423,0c0.048077,0 0.110235,0.014081 0.14423,0.048077c0.033995,0.033996 0.143455,0.014936 0,0c-0.928463,-0.096673 -1.264077,-0.350618 -1.298072,-0.384614c-0.033995,-0.033996 0.14423,-0.048077 0.192307,-0.048077c0.096154,0 0.240384,0 0.288461,0c0.14423,0 0.177568,0.022058 0.240384,0.048077c0.044417,0.018398 0.183866,0.052784 0.240384,0.144231c0.025275,0.040896 0.049363,0.037031 0.096153,0.048077c0.104627,0.024699 0.356675,0.204643 0.432691,0.432691c0.060812,0.182438 0.00718,0.215107 0.048077,0.240383c0.091448,0.056519 0.048077,0.144231 0.048077,0.240384c0,0.048077 0.037031,0.145516 0.048077,0.192307c0.024699,0.104627 0.048077,0.192307 0.048077,0.240383c0,0.048077 0.048077,0.048077 0.096153,0.048077c0.096153,0 0.14789,-0.018398 0.192307,0c0.062815,0.026019 0.048077,0.144231 0.048077,0.240384c0,0.096153 0,0.240383 0,0.28846c0,0.048078 0,0.096154 0,0.144231c0,0.14423 0,0.240383 0,0.336537c0,0.048077 -0.096154,0.14423 -0.096154,0.192307c0,0.048077 -0.022058,0.081415 -0.048077,0.14423c-0.036797,0.088835 -0.011281,0.199627 -0.048077,0.288461c-0.052038,0.12563 -0.096153,0.14423 -0.096153,0.288461c0,0.048077 0,0.096153 0,0.14423c0,0.192307 0,0.336537 0,0.576921c0,0.096153 -0.096154,0.192307 -0.096154,0.240384c0,0.096153 -0.044116,0.210906 -0.096153,0.336537c-0.018398,0.044417 0,0.096153 0,0.14423c0,0.048077 0.027864,0.100279 0,0.192307c-0.050232,0.165906 -0.096154,0.192307 -0.096154,0.288461c0,0.048077 0,0.144231 0,0.240384c0,0.14423 0,0.240383 0,0.28846c0,0.048077 -0.018398,0.14789 0,0.192307c0.026019,0.062815 0.081414,0.070135 0.14423,0.096155c0.044417,0.018398 0.096154,0 0.14423,0c0.096153,0 0.14423,0 0.192307,0c0.048077,0 0.145516,0.011045 0.192307,0c0.104628,-0.0247 0.192307,-0.048079 0.336537,-0.048079c0.096153,0 0.192928,-0.040375 0.240384,-0.048077c0.150069,-0.024353 0.177568,-0.070135 0.240384,-0.096153c0.088834,-0.036797 0.231943,0.043371 0.28846,-0.048077c0.025275,-0.040897 0.186469,-0.119877 0.336537,-0.14423c0.142368,-0.023104 0.240384,-0.048077 0.28846,-0.048077c0.048077,0 0.139797,-0.023857 0.336537,-0.048077c0.095434,-0.011749 0.288461,0 0.384614,0c0.240384,0 0.443005,0.06966 0.673075,0c0.165905,-0.050232 0.347516,-0.040958 0.480767,-0.096153c0.062815,-0.026018 0.081415,-0.070135 0.14423,-0.096153c0.088835,-0.036797 0.096154,-0.048078 0.096154,-0.096154c0,-0.048077 0.033996,-0.110234 0,-0.14423c-0.033996,-0.033996 -0.096154,0 -0.144231,0c-0.048077,0 -0.096153,0 -0.14423,0c-0.048077,0 -0.081415,0.022058 -0.14423,0.048077c-0.044418,0.018398 -0.110235,0.033996 -0.144231,0c-0.06799,-0.06799 0.033296,-0.105096 0.096153,-0.192307c0.039756,-0.055158 0.124317,-0.028164 0.192307,-0.096154c0.033996,-0.033996 0.048077,-0.048077 0.096153,-0.096153c0.048077,-0.048077 0.145516,-0.085107 0.192307,-0.096153c0.104627,-0.024699 0.158311,-0.062158 0.192307,-0.096153c0.033996,-0.033996 0.096153,-0.048077 0.14423,-0.048077c0.048078,0 0.096154,0 0.144231,0c0.096153,0 0.192307,0 0.240383,0c0.048077,0 0.096154,0 0.144231,0.048077c0.048077,0.048077 0.185226,0.248705 0.240383,0.28846c0.087211,0.062858 0.036065,0.166471 0.192307,0.288461c0.037894,0.029587 0.08768,0.119531 0.192307,0.14423c0.093581,0.022092 0.240384,0.048078 0.336537,0.096154c0.096153,0.048077 0.183833,0.119532 0.288461,0.14423c0.04679,0.011045 0.240383,0.14423 0.336536,0.192307c0.096154,0.048077 0.210907,0.188345 0.336537,0.240383c0.044417,0.018398 0.14789,-0.018398 0.192307,0c0.125631,0.052038 0.291959,0.090477 0.528844,0.240385c0.146477,0.092695 0.177568,0.118212 0.240383,0.14423c0.044417,0.018398 0.092867,-0.003529 0.144231,-0.048077c0.181599,-0.157499 0.384613,-0.28846 0.528844,-0.432692c0.048077,-0.048077 0.118211,-0.033339 0.14423,-0.096153c0.018398,-0.044416 0,-0.096153 0,-0.14423c0,-0.096153 0,-0.14423 0,-0.240383c0,-0.048077 0,-0.240384 0,-0.336537c0,-0.048077 0,-0.144231 0,-0.336537c0,-0.048077 0,-0.14423 0,-0.192307c0,-0.096154 0.033137,-0.148089 0,-0.288461c-0.024699,-0.104627 -0.081372,-0.153173 -0.14423,-0.240384c-0.039755,-0.055157 -0.059357,-0.151549 -0.096153,-0.240383c-0.078057,-0.188447 -0.144231,-0.240384 -0.240384,-0.384614c-0.096153,-0.144231 -0.119877,-0.186469 -0.14423,-0.336537c-0.007701,-0.047456 -0.023724,-0.138391 -0.048077,-0.288461c-0.023103,-0.142367 -0.048077,-0.28846 -0.048077,-0.384613c0,-0.096154 -0.023378,-0.183834 -0.048078,-0.288461c-0.011045,-0.04679 -0.048077,-0.14423 -0.048077,-0.192307c0,-0.14423 0.023377,-0.23191 0.048077,-0.336536c0.011045,-0.04679 0.093999,-0.122556 0.144231,-0.288461c0.013932,-0.046014 0.137149,-0.200628 0.192307,-0.240384c0.087211,-0.062859 0.116291,-0.11629 0.192307,-0.192307c0.076016,-0.076015 0.13007,-0.208951 0.240383,-0.288461c0.087212,-0.062859 0.144231,-0.14423 0.240384,-0.14423c0.048077,0 0.167031,-0.103333 0.192307,-0.14423c0.056518,-0.091447 0.153173,-0.081373 0.240384,-0.144231c0.110313,-0.07951 0.192307,-0.14423 0.240383,-0.240383c0.096154,-0.192307 0.288461,-0.336537 0.384614,-0.432691c0.096153,-0.096154 0.134471,-0.108486 0.192307,-0.144231c0.129327,-0.079928 0.208951,-0.033916 0.288461,-0.14423c0.062859,-0.087211 0.185226,-0.104475 0.240383,-0.14423c0.08721,-0.062858 0.14423,-0.096154 0.192307,-0.144231c0.048077,-0.048077 0.048077,-0.096153 0.048077,-0.14423c0,-0.048077 0,-0.096153 0,-0.240384c0,-0.048077 0.022091,-0.146802 0,-0.240383c-0.024698,-0.104627 -0.048077,-0.192307 -0.14423,-0.288461c-0.048077,-0.048077 -0.0186,-0.140268 -0.14423,-0.192307c-0.044416,-0.018398 -0.14423,0 -0.192307,0c-0.048077,0 -0.192308,0 -0.432692,0c-0.192307,0 -0.426852,-0.023724 -0.576921,-0.048077c-0.094912,-0.015402 -0.14423,0 -0.240384,0c-0.14423,0 -0.240383,-0.048077 -0.43269,-0.048077c-0.144231,0 -0.384614,0 -0.528845,0c-0.14423,0 -0.28846,0.000001 -0.336537,-0.048077c-0.048078,-0.048078 -0.15548,-0.023701 -0.384613,-0.144231c-0.153413,-0.0807 -0.384614,-0.192307 -0.480767,-0.192307c-0.048078,0 -0.124317,0.06799 -0.192307,0c-0.067991,-0.067991 -0.096153,-0.14423 -0.14423,-0.14423c-0.096154,0 -0.214365,-0.033339 -0.240384,-0.096154c-0.036797,-0.088834 -0.051736,-0.125832 -0.096153,-0.14423c-0.12563,-0.052038 -0.082409,-0.202484 -0.192307,-0.336537c-0.086211,-0.10516 -0.145516,-0.133184 -0.192307,-0.14423c-0.104627,-0.024699 -0.111714,-0.073084 -0.192307,-0.14423c-0.129952,-0.114719 -0.096154,-0.240384 -0.144231,-0.336537c-0.048077,-0.096153 -0.119877,-0.186468 -0.14423,-0.336537c-0.046206,-0.284736 -0.097861,-0.50501 -0.240384,-0.721151c-0.074857,-0.113523 -0.1498,-0.190568 -0.192307,-0.336537c-0.055421,-0.19032 -0.067863,-0.307884 -0.240384,-0.528844c-0.083685,-0.107181 -0.152552,-0.185227 -0.192307,-0.240384c-0.062858,-0.087211 -0.068213,-0.212445 -0.14423,-0.28846c-0.076016,-0.076016 -0.081416,-0.118211 -0.144231,-0.14423c-0.088834,-0.036796 -0.192307,0 -0.288461,0c-0.048077,0 -0.096153,0 -0.192307,0c-0.048077,0 -0.140268,0.0186 -0.192307,0.14423c-0.018398,0.044417 -0.033297,0.057019 -0.096154,0.14423c-0.039755,0.055157 -0.096153,0.14423 -0.14423,0.192307c-0.048077,0.048077 -0.071454,0.08768 -0.096153,0.192307c-0.011045,0.046791 0.011045,0.097439 0,0.14423c-0.024699,0.104627 -0.119878,0.234545 -0.144231,0.384614c-0.015402,0.094912 0.019914,0.220469 -0.048077,0.28846c-0.033996,0.033995 -0.062158,0.014081 -0.096153,0.048077c-0.067991,0.067991 0,0.14423 0,0.192307l-0.048077,0.048077" id="svg_1" stroke-opacity="null" stroke-width="null" stroke="null" fill="none"/>
  <path d="m9.543272,3.290291c0.048077,0 0.093998,0.074478 0.14423,0.240383c0.027864,0.092028 0,0.14423 0,0.384614c0,0.048077 0,0.192307 0,0.240384c0,0.096153 0.022092,0.146802 0,0.240384c-0.024699,0.104627 -0.140268,0.210907 -0.192307,0.336537c-0.018398,0.044417 0.033996,0.158312 0,0.192307c-0.033996,0.033996 -0.087713,0.004706 -0.144231,0.096154c-0.025275,0.040896 -0.062158,0.110235 -0.096153,0.14423c-0.033996,0.033995 -0.286305,0.074479 -0.336537,0.240384c-0.013932,0.046014 -0.029678,0.099813 -0.048077,0.14423c-0.026019,0.062815 -0.057152,0.116119 -0.096153,0.14423c-0.123335,0.088895 -0.059357,0.199626 -0.096153,0.28846c-0.052038,0.125631 -0.119532,0.135757 -0.144231,0.240384c-0.011045,0.046791 0,0.096154 0,0.192307c0,0.048077 -0.070134,0.081415 -0.096153,0.14423c-0.036797,0.088834 -0.016644,0.178146 -0.096153,0.28846c-0.062858,0.087211 -0.070134,0.177568 -0.096153,0.240384c-0.018398,0.044417 -0.062159,0.110234 -0.096154,0.14423c-0.033996,0.033995 0.043371,0.135789 -0.048077,0.192307c-0.040896,0.025275 -0.073085,0.015561 -0.14423,0.096153c-0.114719,0.129952 -0.192307,0.096154 -0.240384,0.096154c-0.096154,0 -0.166288,-0.014739 -0.192307,0.048077c-0.018398,0.044417 -0.051736,0.029679 -0.096153,0.048077c-0.062816,0.026019 -0.051848,0.086051 -0.192307,0.14423c-0.09932,0.04114 -0.193593,0.085108 -0.240384,0.096154c-0.104627,0.024699 -0.081415,0.118211 -0.14423,0.14423c-0.044417,0.018398 -0.096153,0.048077 -0.192307,0.048077c-0.048077,0 -0.196433,-0.027864 -0.28846,0c-0.165905,0.050232 -0.192307,0.096153 -0.336537,0.096153c-0.048077,0 -0.14423,0 -0.240384,0c-0.096153,0 -0.192307,0 -0.28846,0c-0.096154,0 -0.14789,0.018398 -0.192307,0c-0.062815,-0.026019 -0.14423,-0.048077 -0.240384,-0.048077c-0.096154,0 -0.158312,-0.014081 -0.192307,-0.048077c-0.033995,-0.033996 -0.048077,-0.048077 -0.096154,-0.048077c-0.048077,0 -0.096153,0 -0.14423,0c-0.048077,0 -0.096154,0 -0.240384,0c-0.048077,0 -0.096154,0 -0.14423,0c-0.048077,0 -0.145965,-0.018184 -0.240384,0c-0.25423,0.04896 -0.322691,0.143347 -0.576921,0.192307c-0.047209,0.009091 -0.09744,0.085108 -0.14423,0.096153c-0.104627,0.024699 -0.151489,0.020895 -0.240384,0.14423c-0.056222,0.078004 -0.085263,0.125194 -0.096153,0.192307c-0.01722,0.106115 0.140269,0.114754 0.192307,0.240384c0.018398,0.044417 0.023378,0.08768 0.048077,0.192307c0.011046,0.046791 0.004706,0.087713 0.096153,0.144231c0.040896,0.025275 0.090321,-0.053909 0.192307,0.048077c0.067991,0.06799 0,0.14423 0,0.192307c0,0.048077 0.062158,0.110235 0.096153,0.144231c0.033995,0.033996 0.247703,0.059357 0.336537,0.096153c0.062815,0.026019 0.099925,0.08605 0.240384,0.14423c0.09932,0.04114 0.135757,0.071454 0.240384,0.096153c0.046791,0.011045 0.081414,0.022058 0.14423,0.048078c0.044417,0.018398 0.042244,0.090321 0.14423,0.192307c0.033995,0.033996 0.118211,0.081414 0.14423,0.14423c0.036797,0.088835 0.097439,0.181262 0.14423,0.192307c0.104627,0.024699 0.158312,0.062158 0.192307,0.096153c0.033995,0.033996 0.057019,0.033295 0.14423,0.096153c0.110314,0.07951 0.167608,0.135757 0.192307,0.240384c0.011046,0.04679 0.034145,0.098216 0.048077,0.14423c0.050232,0.165905 0.096154,0.240384 0.096154,0.288461c0,0.048077 0.062158,0.110234 0.096153,0.14423c0.033995,0.033996 0.062158,0.014081 0.096153,0.048077c0.067991,0.067991 0.070135,0.081415 0.096154,0.144231c0.018398,0.044417 0.048077,0.096153 0.096153,0.096153c0.048077,0 0.094832,0.03113 0.14423,0.240383c0.011046,0.046791 0.062158,0.158312 0.096153,0.192307c0.033995,0.033996 0,0.096153 0,0.14423c0,0.048077 0,0.144231 0,0.240384c0,0.096153 -0.051736,0.173908 -0.096153,0.192307c-0.125631,0.052038 -0.062159,0.158312 -0.096154,0.192307c-0.033995,0.033996 -0.055396,0.107434 -0.14423,0.14423c-0.062816,0.026019 -0.048077,0.096153 -0.048077,0.14423c0,0.096154 0,0.144231 0,0.192307c0,0.048077 0.048077,0.192307 0.048077,0.28846c0,0.048077 -0.066174,0.100015 -0.14423,0.288461c-0.018398,0.044417 -0.022058,0.129492 -0.048077,0.192307c-0.018398,0.044417 -0.040376,0.144851 -0.048077,0.192307c-0.024353,0.150068 -0.070135,0.225645 -0.096154,0.288461c-0.036796,0.088834 0,0.192307 0,0.240383c0,0.048077 0,0.096153 0,0.144231c0,0.048077 0,0.192307 0,0.240383c0,0.048077 0,0.096153 0,0.14423c0,0.096154 0,0.240384 0,0.336537c0,0.192307 0,0.288461 0,0.336537c0,0.048077 -0.013744,0.154406 0.096154,0.28846c0.043105,0.05258 0.153173,0.033295 0.240384,0.096153c0.055158,0.039757 0.096153,0.048079 0.14423,0.048079c0.048077,0 0.096154,0 0.14423,0c0.096153,0 0.192307,0 0.240384,0c0.14423,0 0.192928,0.007702 0.240384,0c0.300138,-0.048706 0.45129,-0.14027 0.576921,-0.192308c0.088834,-0.036797 0.192307,-0.096153 0.28846,-0.096153c0.048077,0 0.151411,0.025276 0.192307,0c0.091447,-0.056517 0.081415,-0.118212 0.14423,-0.14423c0.044417,-0.018398 0.129492,-0.070135 0.192307,-0.096153c0.044417,-0.018398 0.114754,-0.140268 0.240384,-0.192307c0.044417,-0.018398 0.066676,-0.140268 0.192307,-0.192307c0.044417,-0.018398 0.103474,0.036797 0.192307,0c0.062815,-0.026019 0.103473,-0.107433 0.192307,-0.14423c0.062816,-0.026019 0.107132,0.007117 0.240384,-0.048078c0.062815,-0.026019 0.092987,-0.055014 0.192307,-0.096153c0.14046,-0.05818 0.321799,-0.214364 0.384614,-0.240383c0.044417,-0.018398 0.062158,-0.014081 0.096153,-0.048077c0.033996,-0.033996 0.048077,-0.096154 0.096154,-0.096154c0.048077,0 0.192307,0 0.28846,0c0.048077,0 0.144231,0 0.192307,0c0.048077,0 0.155607,-0.045371 0.240383,0c0.152833,0.081794 0.240384,0.240384 0.336537,0.336537c0.096153,0.096153 0.110234,0.110234 0.14423,0.14423c0.033996,0.033996 0.144231,0.096154 0.240384,0.096154c0.048077,0 0.192307,0.048077 0.240384,0.048077c0.096153,0 0.33084,0.009148 0.480767,0.096153c0.09298,0.053958 0.14423,0.096153 0.192307,0.096153c0.048077,0 0.096153,0.048077 0.14423,0.048077c0.048078,0 0.144231,0 0.240384,0c0.096153,0 0.081993,0.064721 0.192307,0.144231c0.087211,0.062859 0.14423,0.048077 0.240383,0.048077c0.048077,0 0.14423,0.048077 0.192307,0.096153c0.048078,0.048077 0.112798,0.13007 0.192307,0.240383c0.062858,0.08721 0.173907,0.14789 0.192307,0.192308c0.052038,0.125631 0.096154,0.14423 0.192307,0.14423c0.048077,0 0.151549,-0.01128 0.240383,-0.048077c0.062815,-0.026018 0.104476,-0.040997 0.144231,-0.096153c0.062859,-0.087212 0.048077,-0.144232 0.048077,-0.192308c0,-0.096153 0,-0.14423 0,-0.240383c0,-0.048077 0,-0.096153 0,-0.14423c0,-0.048077 0,-0.192307 0,-0.336537c0,-0.096153 0,-0.14423 0,-0.240384c0,-0.096153 0,-0.14423 0,-0.240383c0,-0.048077 0,-0.192307 0,-0.384614c0,-0.144231 -0.029678,-0.244043 -0.048077,-0.288461c-0.026019,-0.062815 -0.144231,-0.192307 -0.192307,-0.240383c-0.048077,-0.048077 -0.098859,-0.155608 -0.14423,-0.240384c-0.081793,-0.152832 -0.192307,-0.096153 -0.240384,-0.192307c-0.048077,-0.096154 -0.048077,-0.144231 -0.096153,-0.240384c-0.048077,-0.096153 -0.048077,-0.14423 -0.048077,-0.240383c0,-0.144231 -0.007344,-0.194294 0.048077,-0.384614c0.042506,-0.145969 0.119531,-0.183834 0.14423,-0.288461c0.022092,-0.093581 0,-0.192307 0,-0.240384c0,-0.048077 0,-0.096153 0,-0.14423c0,-0.048077 0,-0.14423 0,-0.240383c0,-0.144231 0.022058,-0.177568 0.048078,-0.240384c0.018398,-0.044417 0.070134,-0.081415 0.096153,-0.14423c0.018398,-0.044417 0.039603,-0.071455 0.14423,-0.096154c0.093581,-0.022092 0.129492,-0.022058 0.192307,-0.048077c0.044417,-0.018398 0.062437,0.002474 0.14423,-0.048077c0.091447,-0.056518 0.096153,-0.192307 0.192307,-0.288461c0.14423,-0.144231 0.189834,-0.254744 0.240384,-0.336536c0.056518,-0.091447 0.192307,-0.192307 0.240383,-0.240384c0.096154,-0.096153 0.144231,-0.14423 0.192307,-0.14423c0.096153,0 0.202483,-0.082409 0.336537,-0.192307c0.05258,-0.043105 0.148001,-0.182203 0.28846,-0.240383c0.09932,-0.04114 0.221985,-0.147891 0.240383,-0.192307c0.02602,-0.062816 0.050785,-0.107531 0.096155,-0.192307c0.081793,-0.152832 0.183867,-0.10086 0.240383,-0.192307c0.025274,-0.040896 0.051737,-0.077755 0.096153,-0.096153c0.062815,-0.026019 0.140268,-0.066676 0.192307,-0.192307c0.018398,-0.044417 0.022058,-0.129493 0.048077,-0.192307c0.018398,-0.044417 0,-0.240383 0,-0.28846c0,-0.048078 0,-0.096154 0,-0.192307c0,-0.096153 0.033995,-0.206388 0,-0.240383c-0.033995,-0.033996 -0.096153,0 -0.240383,0c-0.096153,0 -0.192307,0 -0.28846,0c-0.144232,0 -0.279987,-0.023377 -0.384615,-0.048077c-0.04679,-0.011045 -0.241004,0.007701 -0.28846,0c-0.150069,-0.024353 -0.225645,-0.070135 -0.288461,-0.096154c-0.177668,-0.073593 -0.242447,0.013932 -0.288461,0c-0.165905,-0.050232 -0.240383,-0.096153 -0.28846,-0.096153c-0.048077,0 -0.144231,0 -0.192307,0c-0.096153,0 -0.148355,0.027864 -0.240383,0c-0.165906,-0.050232 -0.240384,-0.096153 -0.336537,-0.096153c-0.096153,0 -0.199627,0.036797 -0.288461,0c-0.12563,-0.052038 -0.192307,-0.096153 -0.240383,-0.096153c-0.048077,0 -0.096154,0 -0.144231,0c-0.048077,0 -0.14423,0 -0.240383,0c-0.096153,0 -0.240384,0 -0.336537,-0.048077c-0.096153,-0.048077 -0.114753,-0.092192 -0.240384,-0.14423c-0.044417,-0.018398 -0.096153,-0.096153 -0.14423,-0.14423c-0.048077,-0.048077 -0.096153,-0.048077 -0.096153,-0.14423c0,-0.048077 0.015402,-0.097395 0,-0.192307c-0.024353,-0.150069 -0.096153,-0.192307 -0.14423,-0.240384c-0.048078,-0.048077 -0.070879,-0.055257 -0.096154,-0.096153c-0.056518,-0.091447 -0.133184,-0.049363 -0.14423,-0.096154c-0.024699,-0.104627 -0.01128,-0.151549 -0.048077,-0.240384c-0.052038,-0.12563 -0.096153,-0.14423 -0.096153,-0.240384c0,-0.048077 -0.037973,-0.196078 -0.096154,-0.336537c-0.082279,-0.198639 -0.164225,-0.276974 -0.240383,-0.432691c-0.066795,-0.136572 -0.081371,-0.249327 -0.14423,-0.336537c-0.039756,-0.055157 -0.029679,-0.099813 -0.048078,-0.14423c-0.026019,-0.062815 -0.025985,-0.098725 -0.048077,-0.192307c-0.024699,-0.104627 -0.129449,-0.153173 -0.192307,-0.240384c-0.039755,-0.055157 -0.029678,-0.099813 -0.048077,-0.14423c-0.078057,-0.188447 -0.454014,-0.30676 -0.528844,-0.576921c-0.025666,-0.092664 0.014738,-0.166288 -0.048078,-0.192307c-0.044417,-0.018398 -0.14423,0 -0.192307,0c-0.048077,0 -0.062158,0.014081 -0.096153,0.048077c-0.033996,0.033995 -0.110235,0.014081 -0.144231,0.048077c-0.033996,0.033995 -0.004706,0.087713 -0.096153,0.14423c-0.040896,0.025275 -0.014081,0.062158 -0.048077,0.096154c-0.033996,0.033995 0.027182,0.151489 -0.096153,0.240384c-0.039001,0.028111 -0.033339,0.070134 -0.096153,0.096153c-0.044418,0.018398 -0.144231,0.096154 -0.144231,0.14423c0,0.048077 -0.033296,0.153172 -0.096153,0.240384c-0.039755,0.055157 -0.048077,0.096153 -0.096153,0.192307c-0.048077,0.096153 -0.07305,0.146092 -0.096153,0.28846c-0.024353,0.150069 -0.048078,0.240384 -0.048078,0.336537c0,0.048077 0,0.096153 0,0.14423l0,0.048077" id="svg_3" stroke-opacity="null" stroke-width="null" stroke="null" fill="#ffffff"/>
 </g>
</svg>